<mxfile host="app.diagrams.net" modified="2023-05-09T13:24:19.386Z" agent="Mozilla/5.0 (Windows NT 10.0; Win64; x64) AppleWebKit/537.36 (KHTML, like Gecko) Chrome/112.0.0.0 Safari/537.36" etag="kmBkmWJU4SZWwYqVndJg" version="21.2.9" type="device">
  <diagram name="Page-1" id="2YBvvXClWsGukQMizWep">
    <mxGraphModel dx="1434" dy="756" grid="1" gridSize="10" guides="1" tooltips="1" connect="1" arrows="1" fold="1" page="1" pageScale="1" pageWidth="850" pageHeight="1100" math="0" shadow="0">
      <root>
        <mxCell id="0" />
        <mxCell id="1" parent="0" />
        <mxCell id="YSP_uSWVFn_qr2q9FEzM-15" value="" style="group" parent="1" vertex="1" connectable="0">
          <mxGeometry x="60" y="150" width="980" height="250" as="geometry" />
        </mxCell>
        <mxCell id="YSP_uSWVFn_qr2q9FEzM-1" value="일반 회원" style="shape=umlActor;verticalLabelPosition=bottom;verticalAlign=top;html=1;outlineConnect=0;" parent="YSP_uSWVFn_qr2q9FEzM-15" vertex="1">
          <mxGeometry y="10" width="50" height="100" as="geometry" />
        </mxCell>
        <mxCell id="YSP_uSWVFn_qr2q9FEzM-2" value=":Apply" style="rounded=0;whiteSpace=wrap;html=1;" parent="YSP_uSWVFn_qr2q9FEzM-15" vertex="1">
          <mxGeometry x="460" y="30" width="110" height="60" as="geometry" />
        </mxCell>
        <mxCell id="YSP_uSWVFn_qr2q9FEzM-3" value=":ApplyUI" style="rounded=0;whiteSpace=wrap;html=1;" parent="YSP_uSWVFn_qr2q9FEzM-15" vertex="1">
          <mxGeometry x="190" y="30" width="110" height="60" as="geometry" />
        </mxCell>
        <mxCell id="YSP_uSWVFn_qr2q9FEzM-4" value=":Company" style="rounded=0;whiteSpace=wrap;html=1;" parent="YSP_uSWVFn_qr2q9FEzM-15" vertex="1">
          <mxGeometry x="280" y="190" width="100" height="60" as="geometry" />
        </mxCell>
        <mxCell id="YSP_uSWVFn_qr2q9FEzM-5" value=":Recruitinfo" style="rounded=0;whiteSpace=wrap;html=1;" parent="YSP_uSWVFn_qr2q9FEzM-15" vertex="1">
          <mxGeometry x="520" y="190" width="110" height="60" as="geometry" />
        </mxCell>
        <mxCell id="YSP_uSWVFn_qr2q9FEzM-6" value="" style="endArrow=none;html=1;rounded=0;entryX=0.25;entryY=1;entryDx=0;entryDy=0;exitX=0.75;exitY=0;exitDx=0;exitDy=0;" parent="YSP_uSWVFn_qr2q9FEzM-15" source="YSP_uSWVFn_qr2q9FEzM-4" target="YSP_uSWVFn_qr2q9FEzM-2" edge="1">
          <mxGeometry width="50" height="50" relative="1" as="geometry">
            <mxPoint x="330" y="160" as="sourcePoint" />
            <mxPoint x="380" y="110" as="targetPoint" />
          </mxGeometry>
        </mxCell>
        <mxCell id="YSP_uSWVFn_qr2q9FEzM-7" value="" style="endArrow=none;html=1;rounded=0;entryX=0;entryY=0.5;entryDx=0;entryDy=0;exitX=1;exitY=0.5;exitDx=0;exitDy=0;" parent="YSP_uSWVFn_qr2q9FEzM-15" source="YSP_uSWVFn_qr2q9FEzM-3" target="YSP_uSWVFn_qr2q9FEzM-2" edge="1">
          <mxGeometry width="50" height="50" relative="1" as="geometry">
            <mxPoint x="330" y="160" as="sourcePoint" />
            <mxPoint x="380" y="110" as="targetPoint" />
          </mxGeometry>
        </mxCell>
        <mxCell id="YSP_uSWVFn_qr2q9FEzM-8" value="" style="endArrow=classic;html=1;rounded=0;" parent="YSP_uSWVFn_qr2q9FEzM-15" edge="1">
          <mxGeometry width="50" height="50" relative="1" as="geometry">
            <mxPoint x="440" y="100" as="sourcePoint" />
            <mxPoint x="350" y="170" as="targetPoint" />
          </mxGeometry>
        </mxCell>
        <mxCell id="YSP_uSWVFn_qr2q9FEzM-9" value="1: listRecruitinfo()" style="text;html=1;align=left;verticalAlign=middle;resizable=0;points=[];autosize=1;strokeColor=none;fillColor=none;" parent="YSP_uSWVFn_qr2q9FEzM-15" vertex="1">
          <mxGeometry x="280" y="120" width="120" height="30" as="geometry" />
        </mxCell>
        <mxCell id="YSP_uSWVFn_qr2q9FEzM-12" value="" style="endArrow=none;html=1;rounded=0;entryX=0;entryY=0.5;entryDx=0;entryDy=0;" parent="YSP_uSWVFn_qr2q9FEzM-15" source="YSP_uSWVFn_qr2q9FEzM-1" target="YSP_uSWVFn_qr2q9FEzM-3" edge="1">
          <mxGeometry width="50" height="50" relative="1" as="geometry">
            <mxPoint x="330" y="160" as="sourcePoint" />
            <mxPoint x="380" y="110" as="targetPoint" />
          </mxGeometry>
        </mxCell>
        <mxCell id="YSP_uSWVFn_qr2q9FEzM-13" value="" style="endArrow=classic;html=1;rounded=0;" parent="YSP_uSWVFn_qr2q9FEzM-15" edge="1">
          <mxGeometry width="50" height="50" relative="1" as="geometry">
            <mxPoint x="60" y="50" as="sourcePoint" />
            <mxPoint x="180" y="50" as="targetPoint" />
          </mxGeometry>
        </mxCell>
        <mxCell id="YSP_uSWVFn_qr2q9FEzM-14" value="5: selectwantApplyInfo()&lt;br&gt;&lt;div style=&quot;text-align: left;&quot;&gt;&lt;span style=&quot;background-color: initial;&quot;&gt;6: applyforInfo()&lt;/span&gt;&lt;/div&gt;" style="text;html=1;align=center;verticalAlign=middle;resizable=0;points=[];autosize=1;strokeColor=none;fillColor=none;" parent="YSP_uSWVFn_qr2q9FEzM-15" vertex="1">
          <mxGeometry x="40" y="15" width="150" height="40" as="geometry" />
        </mxCell>
        <mxCell id="YSP_uSWVFn_qr2q9FEzM-10" value="" style="endArrow=classic;html=1;rounded=0;" parent="YSP_uSWVFn_qr2q9FEzM-15" edge="1">
          <mxGeometry width="50" height="50" relative="1" as="geometry">
            <mxPoint x="410" y="70" as="sourcePoint" />
            <mxPoint x="320" y="70" as="targetPoint" />
          </mxGeometry>
        </mxCell>
        <mxCell id="YSP_uSWVFn_qr2q9FEzM-11" value="4: startInterface()" style="text;html=1;align=center;verticalAlign=middle;resizable=0;points=[];autosize=1;strokeColor=none;fillColor=none;" parent="YSP_uSWVFn_qr2q9FEzM-15" vertex="1">
          <mxGeometry x="310" y="70" width="110" height="30" as="geometry" />
        </mxCell>
        <mxCell id="YSP_uSWVFn_qr2q9FEzM-18" value="" style="endArrow=none;html=1;rounded=0;exitX=0.5;exitY=0;exitDx=0;exitDy=0;exitPerimeter=0;entryX=0.645;entryY=1.017;entryDx=0;entryDy=0;entryPerimeter=0;" parent="YSP_uSWVFn_qr2q9FEzM-15" source="YSP_uSWVFn_qr2q9FEzM-5" target="YSP_uSWVFn_qr2q9FEzM-2" edge="1">
          <mxGeometry width="50" height="50" relative="1" as="geometry">
            <mxPoint x="340" y="160" as="sourcePoint" />
            <mxPoint x="390" y="110" as="targetPoint" />
          </mxGeometry>
        </mxCell>
        <mxCell id="YSP_uSWVFn_qr2q9FEzM-20" value="2 *[For all Companies Recruitinfos date &amp;lt; deadline]: getRecruitinfo()&lt;br&gt;3 *[For all Companies Recruitinfos]: sortbyCompanyname()&lt;br&gt;5.1.1 *[For all Companies Recruitinfos]: getRecruitdetail()&lt;br&gt;6.1.1: applyforInfo()" style="text;html=1;align=left;verticalAlign=middle;resizable=0;points=[];autosize=1;strokeColor=none;fillColor=none;" parent="YSP_uSWVFn_qr2q9FEzM-15" vertex="1">
          <mxGeometry x="570" y="90" width="380" height="70" as="geometry" />
        </mxCell>
        <mxCell id="YSP_uSWVFn_qr2q9FEzM-16" value="" style="endArrow=classic;html=1;rounded=0;" parent="1" edge="1">
          <mxGeometry width="50" height="50" relative="1" as="geometry">
            <mxPoint x="370" y="200" as="sourcePoint" />
            <mxPoint x="480" y="200" as="targetPoint" />
          </mxGeometry>
        </mxCell>
        <mxCell id="YSP_uSWVFn_qr2q9FEzM-17" value="5.1: showRecruitInfoDetail()&lt;br&gt;&lt;div style=&quot;text-align: left;&quot;&gt;&lt;span style=&quot;background-color: initial;&quot;&gt;6.1: applyforInfo()&lt;/span&gt;&lt;/div&gt;" style="text;html=1;align=center;verticalAlign=middle;resizable=0;points=[];autosize=1;strokeColor=none;fillColor=none;" parent="1" vertex="1">
          <mxGeometry x="360" y="163" width="170" height="40" as="geometry" />
        </mxCell>
        <mxCell id="YSP_uSWVFn_qr2q9FEzM-19" value="" style="endArrow=classic;html=1;rounded=0;" parent="1" edge="1">
          <mxGeometry width="50" height="50" relative="1" as="geometry">
            <mxPoint x="600" y="250" as="sourcePoint" />
            <mxPoint x="640" y="330" as="targetPoint" />
          </mxGeometry>
        </mxCell>
        <mxCell id="YSP_uSWVFn_qr2q9FEzM-21" value="&lt;b&gt;sd&lt;/b&gt;&amp;nbsp;지원" style="shape=umlFrame;whiteSpace=wrap;html=1;pointerEvents=0;width=80;height=30;" parent="1" vertex="1">
          <mxGeometry x="20" y="20" width="1010" height="450" as="geometry" />
        </mxCell>
        <mxCell id="iDaYClxIDHbqUK7XxhjZ-1" value="&lt;p style=&quot;margin:0px;margin-top:4px;text-align:center;&quot;&gt;&lt;i&gt;&amp;lt;&amp;lt;boundary&amp;gt;&amp;gt;&lt;/i&gt;&lt;br&gt;&lt;b&gt;User Interface::RecruitinquiryUI&lt;/b&gt;&lt;/p&gt;&lt;hr size=&quot;1&quot;&gt;&lt;p style=&quot;margin:0px;margin-left:4px;&quot;&gt;&lt;br&gt;&lt;/p&gt;&lt;hr size=&quot;1&quot;&gt;&lt;p style=&quot;margin:0px;margin-left:4px;&quot;&gt;startInterface()&lt;/p&gt;&lt;p style=&quot;margin:0px;margin-left:4px;&quot;&gt;searchCompany()&lt;/p&gt;" style="verticalAlign=top;align=left;overflow=fill;fontSize=12;fontFamily=Helvetica;html=1;whiteSpace=wrap;" vertex="1" parent="1">
          <mxGeometry x="140" y="580" width="190" height="140" as="geometry" />
        </mxCell>
        <mxCell id="iDaYClxIDHbqUK7XxhjZ-2" value="&lt;p style=&quot;margin:0px;margin-top:4px;text-align:center;&quot;&gt;&lt;i&gt;&amp;lt;&amp;lt;control&amp;gt;&amp;gt;&lt;/i&gt;&lt;br&gt;&lt;b&gt;Control::Recruitinquiry&lt;/b&gt;&lt;/p&gt;&lt;hr size=&quot;1&quot;&gt;&lt;p style=&quot;margin:0px;margin-left:4px;&quot;&gt;&lt;br&gt;&lt;/p&gt;&lt;hr size=&quot;1&quot;&gt;&lt;p style=&quot;margin:0px;margin-left:4px;&quot;&gt;showRecruitInfo()&lt;/p&gt;" style="verticalAlign=top;align=left;overflow=fill;fontSize=12;fontFamily=Helvetica;html=1;whiteSpace=wrap;" vertex="1" parent="1">
          <mxGeometry x="360" y="580" width="190" height="140" as="geometry" />
        </mxCell>
        <mxCell id="iDaYClxIDHbqUK7XxhjZ-3" value="&lt;p style=&quot;margin:0px;margin-top:4px;text-align:center;&quot;&gt;&lt;i&gt;&amp;lt;&amp;lt;Entry&amp;gt;&amp;gt;&lt;/i&gt;&lt;br&gt;&lt;b&gt;Company&lt;/b&gt;&lt;/p&gt;&lt;hr size=&quot;1&quot;&gt;&lt;p style=&quot;margin:0px;margin-left:4px;&quot;&gt;companyName&lt;/p&gt;&lt;p style=&quot;margin:0px;margin-left:4px;&quot;&gt;companyJob&lt;/p&gt;&lt;p style=&quot;margin:0px;margin-left:4px;&quot;&gt;companyPosition&lt;/p&gt;&lt;hr size=&quot;1&quot;&gt;&lt;p style=&quot;margin:0px;margin-left:4px;&quot;&gt;getCompanyInfo()&lt;/p&gt;&lt;p style=&quot;margin:0px;margin-left:4px;&quot;&gt;listRecruitInfo()&lt;/p&gt;" style="verticalAlign=top;align=left;overflow=fill;fontSize=12;fontFamily=Helvetica;html=1;whiteSpace=wrap;" vertex="1" parent="1">
          <mxGeometry x="245" y="760" width="190" height="150" as="geometry" />
        </mxCell>
        <mxCell id="iDaYClxIDHbqUK7XxhjZ-4" value="&lt;p style=&quot;margin:0px;margin-top:4px;text-align:center;&quot;&gt;&lt;i&gt;&amp;lt;&amp;lt;Entry&amp;gt;&amp;gt;&lt;/i&gt;&lt;br&gt;&lt;b&gt;Recruitinfo&lt;/b&gt;&lt;/p&gt;&lt;hr size=&quot;1&quot;&gt;&lt;p style=&quot;margin:0px;margin-left:4px;&quot;&gt;Deadline&lt;/p&gt;&lt;p style=&quot;margin:0px;margin-left:4px;&quot;&gt;NumberofPeople&lt;/p&gt;&lt;hr size=&quot;1&quot;&gt;&lt;p style=&quot;margin:0px;margin-left:4px;&quot;&gt;getRecruitInfolist()&lt;/p&gt;&lt;p style=&quot;margin:0px;margin-left:4px;&quot;&gt;sortbyCompanyName()&lt;/p&gt;&lt;p style=&quot;margin:0px;margin-left:4px;&quot;&gt;getRecruitdetail()&lt;/p&gt;&lt;p style=&quot;margin:0px;margin-left:4px;&quot;&gt;applyforInfo()&lt;/p&gt;" style="verticalAlign=top;align=left;overflow=fill;fontSize=12;fontFamily=Helvetica;html=1;whiteSpace=wrap;" vertex="1" parent="1">
          <mxGeometry x="560" y="760" width="190" height="150" as="geometry" />
        </mxCell>
        <mxCell id="iDaYClxIDHbqUK7XxhjZ-5" value="" style="endArrow=none;html=1;rounded=0;exitX=1.005;exitY=0.547;exitDx=0;exitDy=0;exitPerimeter=0;" edge="1" parent="1" source="iDaYClxIDHbqUK7XxhjZ-3">
          <mxGeometry width="50" height="50" relative="1" as="geometry">
            <mxPoint x="450" y="835" as="sourcePoint" />
            <mxPoint x="560" y="842" as="targetPoint" />
          </mxGeometry>
        </mxCell>
        <mxCell id="iDaYClxIDHbqUK7XxhjZ-6" value="1" style="text;html=1;align=center;verticalAlign=middle;resizable=0;points=[];autosize=1;strokeColor=none;fillColor=none;" vertex="1" parent="1">
          <mxGeometry x="430" y="815" width="30" height="30" as="geometry" />
        </mxCell>
        <mxCell id="iDaYClxIDHbqUK7XxhjZ-8" value="0..*" style="text;html=1;align=center;verticalAlign=middle;resizable=0;points=[];autosize=1;strokeColor=none;fillColor=none;" vertex="1" parent="1">
          <mxGeometry x="530" y="815" width="40" height="30" as="geometry" />
        </mxCell>
        <mxCell id="iDaYClxIDHbqUK7XxhjZ-9" value="&lt;p style=&quot;margin:0px;margin-top:4px;text-align:center;&quot;&gt;&lt;i&gt;&amp;lt;&amp;lt;control&amp;gt;&amp;gt;&lt;/i&gt;&lt;br&gt;&lt;b&gt;Control::Apply&lt;/b&gt;&lt;/p&gt;&lt;hr size=&quot;1&quot;&gt;&lt;p style=&quot;margin:0px;margin-left:4px;&quot;&gt;&lt;br&gt;&lt;/p&gt;&lt;hr size=&quot;1&quot;&gt;&lt;p style=&quot;margin:0px;margin-left:4px;&quot;&gt;showRecruitInfoDetail()&lt;/p&gt;&lt;p style=&quot;margin:0px;margin-left:4px;&quot;&gt;applyforCompany()&lt;/p&gt;" style="verticalAlign=top;align=left;overflow=fill;fontSize=12;fontFamily=Helvetica;html=1;whiteSpace=wrap;" vertex="1" parent="1">
          <mxGeometry x="580" y="580" width="190" height="140" as="geometry" />
        </mxCell>
        <mxCell id="iDaYClxIDHbqUK7XxhjZ-10" value="&lt;p style=&quot;margin:0px;margin-top:4px;text-align:center;&quot;&gt;&lt;i&gt;&amp;lt;&amp;lt;boundary&amp;gt;&amp;gt;&lt;/i&gt;&lt;br&gt;&lt;b&gt;User Interface::ApplyUI&lt;/b&gt;&lt;/p&gt;&lt;hr size=&quot;1&quot;&gt;&lt;p style=&quot;margin:0px;margin-left:4px;&quot;&gt;&lt;br&gt;&lt;/p&gt;&lt;hr size=&quot;1&quot;&gt;&lt;p style=&quot;margin:0px;margin-left:4px;&quot;&gt;startInterface()&lt;/p&gt;&lt;p style=&quot;margin:0px;margin-left:4px;&quot;&gt;selectwantApplyInfo()&lt;/p&gt;&lt;p style=&quot;margin:0px;margin-left:4px;&quot;&gt;applyforInfo()&lt;/p&gt;" style="verticalAlign=top;align=left;overflow=fill;fontSize=12;fontFamily=Helvetica;html=1;whiteSpace=wrap;" vertex="1" parent="1">
          <mxGeometry x="790" y="580" width="190" height="140" as="geometry" />
        </mxCell>
        <mxCell id="iDaYClxIDHbqUK7XxhjZ-12" value="지원 및 채용" style="text;html=1;align=center;verticalAlign=middle;resizable=0;points=[];autosize=1;strokeColor=none;fillColor=none;" vertex="1" parent="1">
          <mxGeometry x="425" y="845" width="90" height="30" as="geometry" />
        </mxCell>
      </root>
    </mxGraphModel>
  </diagram>
</mxfile>
